<svg width="350" height="224" viewBox="0 0 350 224" fill="none" xmlns="http://www.w3.org/2000/svg">
<rect width="350" height="224" fill="#47555E"/>
<rect x="2.5" y="14.5" width="345" height="207" rx="30.5" fill="#47555E" stroke="#FCFBFB" stroke-width="5"/>
<circle cx="29.5" cy="200.5" r="4" fill="#EEEEEE" stroke="#EEEEEE"/>
<circle cx="149.5" cy="200.5" r="4" fill="#EEEEEE" stroke="#EEEEEE"/>
<circle cx="44.5" cy="200.5" r="4" fill="#EEEEEE" stroke="#EEEEEE"/>
<circle cx="164.5" cy="200.5" r="4" fill="#EEEEEE" stroke="#EEEEEE"/>
<circle cx="59.5" cy="200.5" r="4" fill="#EEEEEE" stroke="#EEEEEE"/>
<circle cx="179.5" cy="200.5" r="4" fill="#EEEEEE" stroke="#EEEEEE"/>
<circle cx="74.5" cy="200.5" r="4" fill="#EEEEEE" stroke="#EEEEEE"/>
<circle cx="194.5" cy="200.5" r="4" fill="#EEEEEE" stroke="#EEEEEE"/>
<circle cx="89.5" cy="200.5" r="4" fill="#EEEEEE" stroke="#EEEEEE"/>
<circle cx="209.5" cy="200.5" r="4" fill="#EEEEEE" stroke="#EEEEEE"/>
<circle cx="104.5" cy="200.5" r="4" fill="#EEEEEE" stroke="#EEEEEE"/>
<circle cx="224.5" cy="200.5" r="4" fill="#EEEEEE" stroke="#EEEEEE"/>
<circle cx="119.5" cy="200.5" r="4" fill="#EEEEEE" stroke="#EEEEEE"/>
<circle cx="239.5" cy="200.5" r="4" fill="#EEEEEE" stroke="#EEEEEE"/>
<circle cx="134.5" cy="200.5" r="4" fill="#EEEEEE" stroke="#EEEEEE"/>
<circle cx="254.5" cy="200.5" r="4" fill="#EEEEEE" stroke="#EEEEEE"/>
<circle cx="269.5" cy="200.5" r="4" fill="#EEEEEE" stroke="#EEEEEE"/>
<circle cx="284.5" cy="200.5" r="4" fill="#EEEEEE" stroke="#EEEEEE"/>
<circle cx="299.5" cy="200.5" r="4" fill="#EEEEEE" stroke="#EEEEEE"/>
<circle cx="314.5" cy="200.5" r="4" fill="#EEEEEE" stroke="#EEEEEE"/>
<circle cx="329.5" cy="200.5" r="4" fill="#EEEEEE" stroke="#EEEEEE"/>
<circle cx="290.5" cy="61.5" r="4" fill="white" stroke="#EEEEEE"/>
<circle cx="305.5" cy="61.5" r="4" fill="white" stroke="#EEEEEE"/>
<circle cx="320.5" cy="61.5" r="4" fill="white" stroke="#EEEEEE"/>
<circle cx="127.5" cy="108.5" r="11" fill="#EEEEEE" stroke="#EEEEEE"/>
<circle cx="20.5" cy="61.5" r="4" fill="#EEEEEE" stroke="#EEEEEE"/>
<circle cx="140.5" cy="61.5" r="4" fill="#EEEEEE" stroke="#EEEEEE"/>
<circle cx="35.5" cy="61.5" r="4" fill="#EEEEEE" stroke="#EEEEEE"/>
<circle cx="155.5" cy="61.5" r="4" fill="white" stroke="#EEEEEE"/>
<circle cx="50.5" cy="61.5" r="4" fill="#EEEEEE" stroke="#EEEEEE"/>
<circle cx="170.5" cy="61.5" r="4" fill="white" stroke="#EEEEEE"/>
<circle cx="65.5" cy="61.5" r="4" fill="#EEEEEE" stroke="#EEEEEE"/>
<circle cx="185.5" cy="61.5" r="4" fill="white" stroke="#EEEEEE"/>
<circle cx="80.5" cy="61.5" r="4" fill="#EEEEEE" stroke="#EEEEEE"/>
<circle cx="200.5" cy="61.5" r="4" fill="white" stroke="#EEEEEE"/>
<circle cx="95.5" cy="61.5" r="4" fill="#EEEEEE" stroke="#EEEEEE"/>
<circle cx="110.5" cy="61.5" r="4" fill="#EEEEEE" stroke="#EEEEEE"/>
<circle cx="125.5" cy="61.5" r="4" fill="#EEEEEE" stroke="#EEEEEE"/>
<rect x="284.5" y="32.5" width="42" height="14" rx="4.5" fill="#EEEEEE" stroke="#EEEEEE"/>
<circle cx="223" cy="113" r="71" fill="#47555E" stroke="#EEEEEE" stroke-width="6"/>
<path d="M275 113C275 140.641 252.811 163 225.5 163C198.189 163 176 140.641 176 113C176 85.3589 198.189 63 225.5 63C252.811 63 275 85.3589 275 113Z" fill="#47555E" stroke="#EEEEEE" stroke-width="6"/>
<line x1="43.5" y1="12" x2="43.5" y2="4" stroke="#EEEEEE" stroke-width="5"/>
<line x1="62.5" y1="12" x2="62.5" y2="4" stroke="#EEEEEE" stroke-width="5"/>
<line x1="82.5" y1="12" x2="82.5" y2="4" stroke="#EEEEEE" stroke-width="5"/>
<line x1="118.5" y1="12" x2="118.5" y2="4" stroke="#EEEEEE" stroke-width="5"/>
<rect x="37.5" y="0.5" width="32" height="3" rx="1.5" fill="white" stroke="#EEEEEE"/>
<rect x="76.5" y="0.5" width="47" height="3" rx="1.5" fill="white" stroke="#EEEEEE"/>
</svg>
